<svg xmlns="http://www.w3.org/2000/svg" xmlns:xlink="http://www.w3.org/1999/xlink"
  preserveAspectRatio="xMidYMid meet" version="1.0" viewBox="462.9 206.2 357.0 359.2"
  zoomAndPan="magnify" style="fill: rgb(0, 0, 0);" original_string_length="1846">
  <g style="fill: rgb(191, 82, 19);">
    <g id="__id133_s98s4ieian">
      <path
        d="M819.9025,384.64374L819.9025,384.64374C819.9025,483.21576,739.9939,563.12427,641.422,563.12427L641.422,563.12427C542.8499,563.12427,462.94147,483.21564,462.94147,384.64374L462.94147,384.64374C462.94147,286.07166,542.8499,206.16318,641.422,206.16318L641.422,206.16318C739.9939,206.16318,819.9025,286.07166,819.9025,384.64374L819.9025,384.64374 M816.3781,384.64374L816.3781,384.64374C816.3781,288.0181,738.04736,209.6876,641.422,209.6876L641.422,209.6876C544.7964,209.6876,466.46588,288.0181,466.46588,384.64374L466.46588,384.64374C466.46588,481.26917,544.7964,559.59985,641.422,559.59985L641.422,559.59985C738.04736,559.59985,816.3781,481.2693,816.3781,384.64374 Z"
        style="fill: inherit;" />
    </g>
    <g id="__id134_s98s4ieian">
      <path
        d="M808.14703,390.59894L808.14703,390.59894C808.14703,487.04547,733.4919,565.3723,641.22974,565.3723L641.22974,565.3723C548.96765,565.3723,474.3125,487.04547,474.3125,390.59894L474.3125,390.59894C474.3125,294.15228,548.96765,215.82555,641.22974,215.82555L641.22974,215.82555C733.4919,215.82555,808.14703,294.1523,808.14703,390.59894L808.14703,390.59894 M804.6226,390.59894L804.6226,390.59894C804.6226,295.94263,731.3929,219.34998,641.22974,219.34998L641.22974,219.34998C551.06665,219.34998,477.8369,295.94263,477.8369,390.59894L477.8369,390.59894C477.8369,485.2552,551.06665,561.84784,641.22974,561.84784L641.22974,561.84784C731.3929,561.84784,804.6226,485.2552,804.6226,390.59894 Z"
        style="fill: inherit;" />
    </g>
  </g>
</svg>